<?xml version="1.0" encoding="UTF-8" standalone="no"?>
<!DOCTYPE svg PUBLIC "-//W3C//DTD SVG 1.1//EN" "http://www.w3.org/Graphics/SVG/1.1/DTD/svg11.dtd">
<svg width="100%" height="100%" viewBox="0 0 1000 1000" version="1.1" xmlns="http://www.w3.org/2000/svg" xmlns:xlink="http://www.w3.org/1999/xlink" xml:space="preserve" xmlns:serif="http://www.serif.com/" style="fill-rule:evenodd;clip-rule:evenodd;stroke-linejoin:round;stroke-miterlimit:2;">
    <g transform="matrix(1.01639,0,0,1.01639,-343.598,-286.838)">
        <circle cx="828.452" cy="774.238" r="491.094" style="fill:rgb(90,191,94);"/>
    </g>
    <g transform="matrix(1,0,0,1,-84.2803,-56.8182)">
        <g id="Layer1">
            <circle cx="587.704" cy="551.878" r="431.707" style="fill:white;"/>
        </g>
    </g>
    <g transform="matrix(1,0,0,1,-7.57573,-6.6288)">
        <g id="Layer2">
            <path d="M792.36,185.778C792.36,155.595 767.855,131.09 737.673,131.09L282.654,131.09C252.471,131.09 227.966,155.595 227.966,185.778L227.966,295.153C227.966,325.336 252.471,349.84 282.654,349.84L737.673,349.84C767.855,349.84 792.36,325.336 792.36,295.153L792.36,185.778Z" style="fill:rgb(90,191,92);"/>
        </g>
    </g>
    <g id="Layer3">
        <path d="M732.701,192.406C732.701,170.586 714.986,152.87 693.165,152.87L319.586,152.87C297.765,152.87 280.05,170.586 280.05,192.406L280.05,271.478C280.05,293.299 297.765,311.014 319.586,311.014L693.165,311.014C714.986,311.014 732.701,293.299 732.701,271.478L732.701,192.406Z" style="fill:white;"/>
    </g>
</svg>
